<svg xmlns="http://www.w3.org/2000/svg" viewBox="0 0 1921.75 1080"><defs><style>.cls-1,.cls-6{fill:#fff;}.cls-2,.cls-3,.cls-4,.cls-5{fill:none;}.cls-2,.cls-3,.cls-4,.cls-5,.cls-6{stroke:#ffbe00;stroke-miterlimit:10;stroke-width:2px;}.cls-3{stroke-dasharray:11.91 11.91;}.cls-4{stroke-dasharray:9.15 9.15;}.cls-5{stroke-dasharray:7.38 7.38;}.cls-6{stroke-dasharray:9.23;}.cls-7{font-size:26px;fill:#ffbe00;font-family:Montserrat-Bold, Montserrat;font-weight:700;}</style></defs><title>Recurso 1</title><g id="Capa_2" data-name="Capa 2"><g id="Capa_1-2" data-name="Capa 1"><rect class="cls-1" x="1.08" width="1920" height="1080"/><path class="cls-1" d="M.58,542.5a550.34,550.34,0,0,0,223,95c126.27,22.9,228.16-4.65,276-21"/><path class="cls-2" d="M.58,542.5,5.47,546"/><path class="cls-3" d="M15.28,552.73a549.65,549.65,0,0,0,208.3,84.77c117,21.23,213.12-.89,264.65-17.26"/><path class="cls-2" d="M493.9,618.41c2-.65,3.87-1.29,5.68-1.91"/><path class="cls-1" d="M267.08,913.24c46.48-70.53,89.74-90.86,123-94.56,47.16-5.25,72.07,23.13,130.7,30,60.58,7.08,114.62-13.8,155.29-36.9"/><path class="cls-2" d="M267.08,913.24l2.56-3.84"/><path class="cls-4" d="M274.85,901.87c43.52-61.38,83.83-79.69,115.24-83.19,47.16-5.25,72.07,23.13,130.7,30,56.67,6.62,107.62-11.22,147.25-32.46"/><path class="cls-2" d="M672.06,814q2-1.12,4-2.25"/><path class="cls-2" d="M1663.08,468.24l1.42-3.38"/><path class="cls-5" d="M1667.44,458.09c27.66-62.36,53.29-80.89,73.24-84.41,29.75-5.25,45.46,23.13,82.44,30,35.53,6.58,67.49-11,92.43-32.07"/><path class="cls-2" d="M1918.34,369.19c.93-.81,1.84-1.62,2.74-2.43"/><path class="cls-6" d="M1222.08,985c25.33-.8,93.31-6.38,156-56,94.8-75,99.58-189,100-206"/><text class="cls-7" transform="translate(836.08 555)">+</text><text class="cls-7" transform="translate(250.08 171)">+</text><text class="cls-7" transform="translate(1600.08 935)">+</text><text class="cls-7" transform="translate(79.73 974.28) rotate(-45)">+</text><text class="cls-7" transform="translate(1015.73 171.28) rotate(-45)">+</text><text class="cls-7" transform="translate(1230.08 339)">o</text><text class="cls-7" transform="translate(370.08 433)">o</text><text class="cls-7" transform="translate(1764.08 171)">o</text><text class="cls-7" transform="translate(820.08 1019)">o</text></g></g></svg>