<svg xmlns="http://www.w3.org/2000/svg" viewBox="0 0 1447.38 750.97"><defs><style>.cls-1{fill:#efefef;}.cls-2,.cls-40{opacity:0.04;}.cls-3{fill:#ffbe00;}.cls-4{fill:#ff9000;}.cls-5{font-size:63.89px;}.cls-19,.cls-31,.cls-5{fill:#191928;}.cls-31,.cls-5{font-family:Montserrat-Bold, Montserrat;font-weight:700;}.cls-6{letter-spacing:-0.01em;}.cls-7{font-size:40.99px;}.cls-8{letter-spacing:0.01em;}.cls-9{letter-spacing:0em;}.cls-10,.cls-11,.cls-12,.cls-13,.cls-14,.cls-15,.cls-16,.cls-17,.cls-23,.cls-24,.cls-25,.cls-26,.cls-27,.cls-28,.cls-29,.cls-30{fill:none;stroke:#ffbe00;stroke-miterlimit:10;}.cls-10,.cls-11,.cls-12{stroke-width:1.98px;}.cls-11{stroke-dasharray:7.71 7.71;}.cls-12{stroke-dasharray:8.62 8.62;}.cls-13,.cls-14{stroke-width:2.37px;}.cls-14{stroke-dasharray:8.44 8.44;}.cls-15,.cls-16,.cls-17{stroke-width:1.88px;}.cls-16{stroke-dasharray:6.79 6.79;}.cls-17{stroke-dasharray:7.52;}.cls-18{fill:#cecece;}.cls-20{fill:#ff7600;}.cls-21{fill:#ffa900;}.cls-22{fill:#fff;}.cls-23,.cls-24,.cls-25{stroke-width:0.88px;}.cls-24{stroke-dasharray:2.23 2.23;}.cls-25{stroke-dasharray:2.34;}.cls-26,.cls-27,.cls-28{stroke-width:0.9px;}.cls-27{stroke-dasharray:2.29 2.29;}.cls-28{stroke-dasharray:2.41;}.cls-29{stroke-width:1.44px;stroke-dasharray:2.88;}.cls-30{stroke-width:1.23px;stroke-dasharray:3.29;}.cls-31{font-size:15.25px;}.cls-32{letter-spacing:0.01em;}.cls-33{letter-spacing:-0.01em;}.cls-34{letter-spacing:-0.01em;}.cls-35{letter-spacing:-0.01em;}.cls-36{letter-spacing:-0.02em;}.cls-37{letter-spacing:-0.01em;}.cls-38,.cls-39,.cls-40,.cls-41{fill:#a0a0a0;}.cls-39,.cls-44{opacity:0.1;}.cls-41,.cls-45{opacity:0.02;}.cls-42{fill:#d3d3d3;}.cls-43{fill:#f7f7f7;}</style></defs><title>kit</title><g id="Capa_2" data-name="Capa 2"><g id="pack1"><polygon class="cls-1" points="890.51 132.58 890.51 341.29 1074.88 470 1074.88 264.76 890.51 132.58"/><polygon class="cls-1" points="1259.24 132.58 1259.24 341.29 1074.88 470 1074.88 264.76 1259.24 132.58"/><polygon class="cls-2" points="1259.24 132.58 1259.24 341.29 1074.88 470 1074.88 264.76 1259.24 132.58"/><polygon class="cls-3" points="1259.24 156.93 1074.88 289.5 890.51 156.93 890.51 132.58 1074.88 24.35 1259.24 132.58 1259.24 156.93"/><polygon class="cls-4" points="1074.88 24.35 1074.88 289.5 1259.24 156.93 1259.24 132.58 1074.88 24.35"/><polygon class="cls-1" points="1259.24 132.58 1074.88 265.15 890.51 132.58 1074.88 0 1259.24 132.58"/><text class="cls-5" transform="matrix(0.89, -0.63, 0.8, 0.6, 1005.41, 184.89)"><tspan class="cls-6">K</tspan><tspan x="46.64" y="0">it</tspan><tspan class="cls-7"><tspan x="0" y="37.58">Sta</tspan><tspan class="cls-8" x="69.26" y="37.58">r</tspan><tspan class="cls-9" x="87.54" y="37.58">tup</tspan></tspan></text><path class="cls-10" d="M890.51,289.65c1.16.43,2.39.91,3.67,1.45"/><path class="cls-11" d="M901.15,294.4A88.15,88.15,0,0,1,921.32,309c13,12.6,15.19,22.16,25.37,30.14,7.3,5.73,18.83,10.72,37.63,7.95"/><path class="cls-10" d="M988.12,346.47c1.26-.25,2.55-.52,3.87-.84"/><path class="cls-10" d="M1020.18,336.63c1.15.43,2.38.91,3.67,1.45"/><path class="cls-12" d="M1031.62,341.81A88.24,88.24,0,0,1,1051,356a138.83,138.83,0,0,1,15,17.86"/><path class="cls-10" d="M1068.45,377.41c1.39,2,2.19,3.28,2.19,3.28"/><path class="cls-13" d="M1144.47,361c-.81,1.42-1.62,2.77-2.42,4.07"/><path class="cls-14" d="M1137.34,372.09c-12.54,17.17-24,21.06-32.85,20.86-8-.18-13.89-3.7-21.48-7.1"/><path class="cls-13" d="M1079.13,384.21c-1.41-.56-2.89-1.09-4.46-1.59"/><path class="cls-3" d="M1075.61,34c-3.63,0-6.58,2.1-6.58,4.69s3,4.7,6.58,4.7,6.58-2.1,6.58-4.7S1079.24,34,1075.61,34Zm0,7.74c-2.34,0-4.23-1.36-4.23-3s1.89-3,4.23-3,4.23,1.35,4.23,3S1078,41.78,1075.61,41.78Z"/><path class="cls-3" d="M1107.56,217.66c-2.6,0-4.7,1.5-4.7,3.35s2.1,3.36,4.7,3.36,4.69-1.51,4.69-3.36S1110.15,217.66,1107.56,217.66Zm0,5.53c-1.67,0-3-1-3-2.16s1.36-2.16,3-2.16,3,1,3,2.16S1109.23,223.19,1107.56,223.19Z"/><path class="cls-3" d="M912.3,207.26l-2.43-1.79.16,4.35-1.8-1.33-.17-4.35-2.42-1.79-.12-3.12,2.42,1.78-.16-4.36,1.8,1.33.17,4.36,2.44,1.79Z"/><path class="cls-3" d="M1049.48,316.25l-2.43-1.79.16,4.35-1.8-1.33-.17-4.35-2.42-1.79-.12-3.12,2.42,1.78-.16-4.36,1.8,1.33.17,4.36,2.43,1.8Z"/><path class="cls-3" d="M1003.08,367.84l-1-3-2,.34-.77-2.24,2-.33-1-3,1.41-.24,1,3,2-.33.77,2.23-2,.34,1,3Z"/><path class="cls-3" d="M1172.67,371.6l1-3,2,.33.77-2.23-2-.34,1-3-1.41-.25-1,3-2-.33-.76,2.23,2,.34-1,3Z"/><path class="cls-3" d="M975.75,255.18c-3.31-3.05-7.16-2.51-8.6,1.21s.09,9.21,3.4,12.25,7.16,2.51,8.6-1.21S979.06,258.23,975.75,255.18Zm-4.29,11.09c-2.13-2-3.11-5.49-2.18-7.88s3.4-2.74,5.53-.78,3.11,5.49,2.19,7.88S973.6,268.23,971.46,266.27Z"/><path class="cls-3" d="M1053.29,411c-1.55-1.43-3.36-1.17-4,.57a5.74,5.74,0,0,0,1.59,5.75c1.56,1.43,3.36,1.18,4-.57A5.73,5.73,0,0,0,1053.29,411Zm-2,5.21a3.67,3.67,0,0,1-1-3.7c.43-1.12,1.59-1.29,2.59-.37a3.7,3.7,0,0,1,1,3.7C1053.45,416.92,1052.28,417.09,1051.28,416.17Z"/><path class="cls-3" d="M1159.85,283.18c1.55-1.43,3.36-1.17,4,.57a5.73,5.73,0,0,1-1.6,5.75c-1.55,1.43-3.36,1.17-4-.57A5.73,5.73,0,0,1,1159.85,283.18Zm2,5.21a3.7,3.7,0,0,0,1-3.7c-.43-1.12-1.59-1.29-2.59-.37a3.7,3.7,0,0,0-1,3.7C1159.69,289.14,1160.85,289.31,1161.85,288.39Z"/><path class="cls-4" d="M1218.53,247.66l3-2.23-.2,5.42,2.24-1.66.21-5.41,3-2.21.15-3.89-3,2.22.21-5.41-2.24,1.65-.21,5.41-3,2.23Z"/><path class="cls-15" d="M1258.83,299c-1-.39-2.17-.83-3.54-1.27"/><path class="cls-16" d="M1248.73,296a56.7,56.7,0,0,0-36.34,5"/><path class="cls-15" d="M1209.4,302.65c-1.26.72-2.33,1.41-3.19,2"/><path class="cls-17" d="M947.83,91.35a42.2,42.2,0,0,0,39.46,1.88"/><polygon class="cls-18" points="730.89 311.97 507.64 469.83 396.02 390.9 396.07 385.17 619.27 233.04 730.75 306.23 730.89 311.97"/><polygon class="cls-1" points="730.89 306.05 507.64 463.91 396.02 384.98 619.27 227.12 730.89 306.05"/><polygon class="cls-18" points="842.09 390.6 618.85 548.46 507.22 469.53 507.28 463.8 730.47 311.67 841.96 384.86 842.09 390.6"/><polygon class="cls-19" points="842.09 384.68 618.85 542.54 507.22 463.61 730.47 305.75 842.09 384.68"/><polygon class="cls-4" points="598.17 488.6 630.09 484.77 616.05 475 584.01 478.79 598.17 488.6"/><polygon class="cls-20" points="635.63 462.62 630.09 484.77 616.05 475 621.59 452.84 635.63 462.62"/><polygon class="cls-21" points="581.55 477.67 619.87 451.1 624.23 454.12 618.56 476.77 585.91 480.69 581.55 477.67"/><polygon class="cls-4" points="600.72 464.38 618.57 476.75 624.23 454.12 619.87 451.1 600.72 464.38"/><polygon class="cls-3" points="587.21 455.03 581.55 477.67 614.21 473.75 619.87 451.1 587.21 455.03"/><path class="cls-22" d="M656.07,438.37l5.74-4,9.5,6.59a12.15,12.15,0,0,1-2.35,4.64,20.1,20.1,0,0,1-4.38,4.05,21.87,21.87,0,0,1-8,3.44,22.84,22.84,0,0,1-8.76.2,19.25,19.25,0,0,1-7.8-3.14,11.47,11.47,0,0,1-4.52-5.41,7.77,7.77,0,0,1,.38-6.1,14.12,14.12,0,0,1,5-5.62,22.79,22.79,0,0,1,6.86-3.25,21.76,21.76,0,0,1,7.36-.79l-.39,5.45a13.07,13.07,0,0,0-8.12,2.09c-3.62,2.2-4,6-.81,8.53.25.19.52.38.81.56a11.24,11.24,0,0,0,4.2,1.78,11.83,11.83,0,0,0,4.63,0,11,11,0,0,0,4.17-1.74,8.56,8.56,0,0,0,2.77-2.94Z"/><path class="cls-22" d="M678.89,437.91A16.46,16.46,0,0,1,666,435.73c-3.42-2.3-4.63-5.77-3.12-8.91,1.72-3.33,5.51-6,10.32-7.15a17.53,17.53,0,0,1,6.81-.23,14.48,14.48,0,0,1,6,2.4,8.63,8.63,0,0,1,3.49,4.17,6.07,6.07,0,0,1-.29,4.74C687.52,434.11,683.72,436.74,678.89,437.91Zm2.92-8.83a4,4,0,0,0-2-2.91,7.32,7.32,0,0,0-4.12-1.41c-3,0-5.38,1.66-5.38,3.72h0a4,4,0,0,0,2,2.86,7.56,7.56,0,0,0,4.17,1.44c2.94,0,5.34-1.62,5.37-3.66v-.07Z"/><path class="cls-22" d="M707,395l11.44,16.71-6,4.18-13-4.39,6.2,9.11-6,4.18-24.09-7.93,5.9-4.09,14.38,4.93-7-10.07,5.31-3.68,14.53,5-7.08-10.14Z"/><path class="cls-22" d="M727.4,396.85l0,2.56,4.37,3-6.2,4.3-24.32-16.87,6.22-4.32,12.79,8.87.16-8.71,7.37-5.11.23,10.39,18.11,1.49-7.52,5.22Z"/><path class="cls-22" d="M726.78,377.24a5.48,5.48,0,0,1-3.41-.91,2.57,2.57,0,0,1-1.31-2.36,3.59,3.59,0,0,1,1.8-2.56,6.84,6.84,0,0,1,3.65-1.29,5.25,5.25,0,0,1,3.36.87,2.75,2.75,0,0,1,1.4,2.42c-.33,2-2.61,3.59-5.51,3.82Zm2.55,2.27,6.23-4.32,17.76,12.32-6.23,4.32Z"/><path class="cls-22" d="M767.76,376.49a5.34,5.34,0,0,1-1.18,1.84,12.12,12.12,0,0,1-2.14,1.86,13.06,13.06,0,0,1-7.05,2.52,11.41,11.41,0,0,1-6.94-2.23l-6-4.12-2.58,1.79-4.66-3.23,2.58-1.79-4.61-3.2,6.23-4.32,4.61,3.2,4.06-2.82,4.66,3.23L750.73,372l5.9,4.09a3.61,3.61,0,0,0,2,.67,3.07,3.07,0,0,0,1.89-.57,3.17,3.17,0,0,0,1.35-1.7Z"/><polygon class="cls-4" points="486.96 409.97 518.89 406.14 504.85 396.37 472.81 400.16 486.96 409.97"/><polygon class="cls-20" points="524.42 383.99 518.89 406.14 504.85 396.37 510.38 374.21 524.42 383.99"/><polygon class="cls-21" points="470.35 399.04 508.67 372.47 513.02 375.49 507.36 398.14 474.7 402.06 470.35 399.04"/><polygon class="cls-4" points="489.52 385.75 507.36 398.12 513.02 375.49 508.67 372.47 489.52 385.75"/><polygon class="cls-3" points="476.01 376.4 470.35 399.04 503.01 395.12 508.67 372.47 476.01 376.4"/><path class="cls-19" d="M544.87,359.74l5.73-4,9.5,6.59a12,12,0,0,1-2.35,4.64,20.08,20.08,0,0,1-4.37,4.06,22.08,22.08,0,0,1-8,3.44,23,23,0,0,1-8.75.19,19.19,19.19,0,0,1-7.8-3.14,11.49,11.49,0,0,1-4.53-5.41,7.86,7.86,0,0,1,.38-6.1,14.14,14.14,0,0,1,5.06-5.62,22.62,22.62,0,0,1,6.85-3.25,21.78,21.78,0,0,1,7.36-.79l-.39,5.45a13.07,13.07,0,0,0-8.12,2.09c-3.62,2.2-4,6-.81,8.53a8.25,8.25,0,0,0,.81.56,11.29,11.29,0,0,0,4.21,1.78,12,12,0,0,0,4.62,0,10.8,10.8,0,0,0,4.18-1.75,8.53,8.53,0,0,0,2.76-2.94Z"/><path class="cls-19" d="M567.68,359.28a16.47,16.47,0,0,1-12.91-2.17c-3.42-2.31-4.64-5.78-3.12-8.91,1.72-3.34,5.51-6,10.32-7.16a17.52,17.52,0,0,1,6.81-.23,14.53,14.53,0,0,1,6,2.4,8.78,8.78,0,0,1,3.49,4.17,6.1,6.1,0,0,1-.29,4.75C576.31,355.48,572.51,358.11,567.68,359.28Zm2.93-8.83a4.06,4.06,0,0,0-2.05-2.91,7.36,7.36,0,0,0-4.13-1.41c-3,0-5.37,1.66-5.37,3.72h0a3.93,3.93,0,0,0,2,2.86,7.59,7.59,0,0,0,4.17,1.44c2.94,0,5.35-1.62,5.38-3.66v-.07Z"/><path class="cls-19" d="M595.82,316.35l11.44,16.71-6,4.18-13-4.39,6.21,9.11-6,4.19-24.08-7.94,5.89-4.09,14.38,4.93-7-10.07,5.31-3.68,14.53,5-7.08-10.13Z"/><path class="cls-19" d="M616.2,318.22l0,2.56,4.36,3-6.2,4.3-24.32-16.87,6.23-4.32,12.79,8.87.15-8.71,7.37-5.11.24,10.39L635,313.85l-7.53,5.22Z"/><path class="cls-19" d="M615.57,298.61a5.39,5.39,0,0,1-3.4-.91,2.56,2.56,0,0,1-1.31-2.36,3.55,3.55,0,0,1,1.79-2.56,7,7,0,0,1,3.66-1.29,5.22,5.22,0,0,1,3.35.87,2.71,2.71,0,0,1,1.4,2.43c-.33,2-2.61,3.59-5.5,3.81Zm2.55,2.27,6.23-4.32,17.76,12.32-6.22,4.32Z"/><path class="cls-19" d="M656.56,297.86a5.55,5.55,0,0,1-1.18,1.84,11.85,11.85,0,0,1-2.15,1.86,13,13,0,0,1-7,2.52,11.44,11.44,0,0,1-6.94-2.22l-6-4.13-2.59,1.79-4.66-3.23,2.59-1.79L624,291.3l6.22-4.32,4.62,3.2,4.06-2.82,4.66,3.23-4.06,2.82,5.89,4.09a3.61,3.61,0,0,0,2,.67,3.08,3.08,0,0,0,1.9-.57,3.17,3.17,0,0,0,1.35-1.7Z"/><polygon class="cls-18" points="1021.36 504.1 903.2 588.59 785.05 504.1 785 496.71 903.2 419.62 1021.41 497.2 1021.36 504.1"/><polygon class="cls-1" points="1021.36 496.59 903.2 581.08 785.05 496.59 903.2 412.11 1021.36 496.59"/><g id="Capa_2-2" data-name="Capa 2"><g id="Presentacion-Logo"><polygon class="cls-4" points="889.46 520.77 932.41 515.77 913.52 503.03 870.43 507.96 889.46 520.77"/><polygon class="cls-20" points="939.86 486.87 932.41 515.77 913.52 503.03 920.97 474.11 939.86 486.87"/><polygon class="cls-21" points="867.12 506.51 918.66 471.84 924.52 475.78 916.9 505.33 872.98 510.45 867.12 506.51"/><polygon class="cls-4" points="892.91 489.16 916.9 505.31 924.51 475.77 918.66 471.83 892.91 489.16"/><polygon class="cls-3" points="874.74 476.96 867.12 506.51 911.05 501.39 918.66 471.84 874.74 476.96"/></g></g><path class="cls-23" d="M878,563.09c.14-.38.29-.74.44-1.08"/><path class="cls-24" d="M879.48,560a8.41,8.41,0,0,1,4.39-3.95c3.79-1.32,6.93-.28,10.55,0,3.88.29,9.36-.67,16.39-6.17"/><path class="cls-23" d="M911.68,549.21l.89-.76"/><path class="cls-25" d="M917.26,421.94A40,40,0,0,1,895,448.88"/><path class="cls-3" d="M974.3,508.55a3.13,3.13,0,0,1-1.33-1,2.23,2.23,0,0,1-.48-1.41,2.27,2.27,0,0,1,.48-1.41,3.22,3.22,0,0,1,1.33-1,5.06,5.06,0,0,1,1.92-.34,5,5,0,0,1,1.91.34,3.25,3.25,0,0,1,1.32,1,2.27,2.27,0,0,1,.48,1.41,2.23,2.23,0,0,1-.48,1.41,3.16,3.16,0,0,1-1.32,1,5,5,0,0,1-1.91.35A5.05,5.05,0,0,1,974.3,508.55Zm3.16-1.31a1.32,1.32,0,0,0,.48-1.07,1.34,1.34,0,0,0-.48-1.07,2.18,2.18,0,0,0-2.49,0,1.31,1.31,0,0,0-.49,1.07,1.3,1.3,0,0,0,.49,1.07,2.14,2.14,0,0,0,2.49,0Z"/><path class="cls-3" d="M836.07,485.12a3.05,3.05,0,0,1-1.33-1,2.34,2.34,0,0,1,0-2.81,3.05,3.05,0,0,1,1.33-1A4.9,4.9,0,0,1,838,480a4.82,4.82,0,0,1,1.91.35,3,3,0,0,1,1.32,1,2.3,2.3,0,0,1,0,2.81,3,3,0,0,1-1.32,1,5,5,0,0,1-1.91.35A5.09,5.09,0,0,1,836.07,485.12Zm3.16-1.31a1.42,1.42,0,0,0,0-2.13,1.87,1.87,0,0,0-1.24-.4,1.91,1.91,0,0,0-1.25.4,1.4,1.4,0,0,0,0,2.13,1.91,1.91,0,0,0,1.25.4A1.87,1.87,0,0,0,839.23,483.81Z"/><path class="cls-3" d="M874.5,532.37h-3.14v2.22H869v-2.22h-3.12v-1.58H869v-2.22h2.33v2.22h3.14Z"/><path class="cls-3" d="M961.83,471.11l-1.51,1.19,1.47,1.16-1.12.88-1.47-1.16-1.5,1.18-1.06-.83,1.5-1.18-1.47-1.16,1.12-.89,1.47,1.17,1.51-1.19Z"/><ellipse class="cls-18" cx="735.5" cy="621.3" rx="85.5" ry="63.07"/><ellipse class="cls-1" cx="735.5" cy="614.29" rx="85.5" ry="63.07"/><g id="Capa_2-3" data-name="Capa 2"><g id="Presentacion-Logo-2" data-name="Presentacion-Logo"><polygon class="cls-4" points="719.57 641.12 763.72 635.97 744.3 622.88 700 627.95 719.57 641.12"/><polygon class="cls-20" points="771.37 606.26 763.72 635.97 744.3 622.88 751.96 593.15 771.37 606.26"/><polygon class="cls-21" points="696.6 626.46 749.59 590.81 755.61 594.86 747.78 625.25 702.62 630.51 696.6 626.46"/><polygon class="cls-4" points="723.11 608.62 747.78 625.22 755.6 594.86 749.58 590.81 723.11 608.62"/><polygon class="cls-3" points="704.43 596.08 696.6 626.46 741.76 621.2 749.59 590.81 704.43 596.08"/></g></g><path class="cls-26" d="M711.42,675q.23-.59.45-1.11"/><path class="cls-27" d="M712.92,671.83a8.62,8.62,0,0,1,4.52-4.06c3.89-1.36,7.11-.28,10.83,0,4,.3,9.63-.69,16.86-6.34"/><path class="cls-26" d="M746,660.71c.3-.25.61-.5.92-.77"/><path class="cls-28" d="M759,554a41.08,41.08,0,0,1-22.88,27.69"/><path class="cls-3" d="M794.74,633.37a3.24,3.24,0,0,1-1.37-1,2.32,2.32,0,0,1-.49-1.44,2.35,2.35,0,0,1,.49-1.45,3.24,3.24,0,0,1,1.37-1,5.57,5.57,0,0,1,3.94,0,3.21,3.21,0,0,1,1.36,1,2.35,2.35,0,0,1,.49,1.45,2.32,2.32,0,0,1-.49,1.44,3.21,3.21,0,0,1-1.36,1,5.57,5.57,0,0,1-3.94,0ZM798,632a1.47,1.47,0,0,0,0-2.19,2.2,2.2,0,0,0-2.56,0,1.45,1.45,0,0,0,0,2.19,2.2,2.2,0,0,0,2.56,0Z"/><path class="cls-3" d="M670.7,602.06a3.21,3.21,0,0,1-1.36-1,2.26,2.26,0,0,1-.49-1.44,2.29,2.29,0,0,1,.49-1.45,3.21,3.21,0,0,1,1.36-1,5.18,5.18,0,0,1,2-.36,5.07,5.07,0,0,1,2,.36,3.21,3.21,0,0,1,1.36,1,2.29,2.29,0,0,1,.49,1.45,2.26,2.26,0,0,1-.49,1.44,3.21,3.21,0,0,1-1.36,1,5.07,5.07,0,0,1-2,.36A5.18,5.18,0,0,1,670.7,602.06Zm3.25-1.35a1.45,1.45,0,0,0,0-2.19,2.19,2.19,0,0,0-2.55,0,1.43,1.43,0,0,0,0,2.19,2.19,2.19,0,0,0,2.55,0Z"/><path class="cls-3" d="M689.74,648.23h-3.23v2.27h-2.39v-2.27h-3.21v-1.64h3.21v-2.27h2.39v2.27h3.23Z"/><path class="cls-3" d="M785.53,580.43,784,581.65l1.52,1.2-1.15.91-1.52-1.2-1.54,1.22-1.09-.86,1.54-1.22-1.51-1.19,1.15-.91,1.51,1.2,1.55-1.23Z"/><polygon class="cls-18" points="1447.38 509.19 1115.79 743.66 950 626.42 950.08 617.91 1281.59 391.95 1447.18 500.67 1447.38 509.19"/><polygon class="cls-1" points="1447.38 500.4 1115.79 734.86 950 617.63 1281.59 383.16 1447.38 500.4"/><path class="cls-3" d="M1353.31,512.68a4.47,4.47,0,0,1-1.86-1.36,3.25,3.25,0,0,1,0-3.95,4.38,4.38,0,0,1,1.86-1.36,7,7,0,0,1,2.7-.49,6.88,6.88,0,0,1,2.68.49,4.38,4.38,0,0,1,1.86,1.36,3.25,3.25,0,0,1,0,3.95,4.47,4.47,0,0,1-1.86,1.36,6.88,6.88,0,0,1-2.68.49A7,7,0,0,1,1353.31,512.68Zm4.44-1.84a1.84,1.84,0,0,0,.68-1.5,1.87,1.87,0,0,0-.68-1.5,3,3,0,0,0-3.49,0,1.85,1.85,0,0,0-.69,1.5,1.82,1.82,0,0,0,.69,1.5,3,3,0,0,0,3.49,0Z"/><path class="cls-3" d="M1238.17,626.18a4.4,4.4,0,0,1-1.86-1.36,3.22,3.22,0,0,1,0-4,4.4,4.4,0,0,1,1.86-1.36,7.18,7.18,0,0,1,2.7-.49,7.07,7.07,0,0,1,2.68.49,4.47,4.47,0,0,1,1.86,1.36,3.26,3.26,0,0,1,0,4,4.47,4.47,0,0,1-1.86,1.36,6.88,6.88,0,0,1-2.68.49A7,7,0,0,1,1238.17,626.18Zm4.44-1.84a2,2,0,0,0,0-3,3,3,0,0,0-3.49,0,2,2,0,0,0,0,3,3,3,0,0,0,3.49,0Z"/><path class="cls-3" d="M1037.49,596.57a4.47,4.47,0,0,1-1.86-1.36,3.25,3.25,0,0,1,0-4,4.48,4.48,0,0,1,1.86-1.37,7.22,7.22,0,0,1,2.7-.49,7.13,7.13,0,0,1,2.69.49,4.51,4.51,0,0,1,1.85,1.37,3.25,3.25,0,0,1,0,4,4.5,4.5,0,0,1-1.85,1.36,6.94,6.94,0,0,1-2.69.49A7,7,0,0,1,1037.49,596.57Zm4.44-1.84a1.84,1.84,0,0,0,.68-1.5,1.87,1.87,0,0,0-.68-1.5,2.65,2.65,0,0,0-1.74-.56,2.7,2.7,0,0,0-1.75.56,1.85,1.85,0,0,0-.69,1.5,1.82,1.82,0,0,0,.69,1.5,2.64,2.64,0,0,0,1.75.56A2.6,2.6,0,0,0,1041.93,594.73Z"/><path class="cls-3" d="M1126,699.11h-4.41v3.11h-3.27v-3.11h-4.38v-2.23h4.38v-3.11h3.27v3.11H1126Z"/><path class="cls-3" d="M1198.38,539.56H1194v3.1h-3.27v-3.1h-4.38v-2.23h4.38v-3.11H1194v3.11h4.41Z"/><path class="cls-3" d="M1283.91,421.12h-4.41v3.11h-3.27v-3.11h-4.38v-2.23h4.38v-3.1h3.27v3.1h4.41Z"/><path class="cls-29" d="M1186.57,450.75a72.83,72.83,0,0,1,31,6.4,74.2,74.2,0,0,1,32.66,29.32"/><path class="cls-30" d="M1371,553.38c-2.38,1.2-28.29,13.73-53.38-.2-16.35-9.09-22.8-24.11-24.62-28.88"/><g id="Capa_2-4" data-name="Capa 2"><g id="Presentacion-Logo-3" data-name="Presentacion-Logo"><polygon class="cls-4" points="1263.4 519.37 1289.37 516.38 1277.95 508.76 1251.9 511.71 1263.4 519.37"/><polygon class="cls-20" points="1293.87 499.1 1289.37 516.38 1277.95 508.76 1282.45 491.47 1293.87 499.1"/><polygon class="cls-21" points="1249.9 510.85 1281.06 490.11 1284.6 492.47 1279.99 510.14 1253.44 513.2 1249.9 510.85"/><polygon class="cls-4" points="1265.49 500.47 1279.99 510.12 1284.59 492.47 1281.05 490.11 1265.49 500.47"/><polygon class="cls-3" points="1254.5 493.18 1249.9 510.85 1276.45 507.78 1281.06 490.11 1254.5 493.18"/></g></g><text class="cls-31" transform="matrix(0.81, -0.58, 0.81, 0.58, 1054.08, 655.5)">Impulsa tu Sta<tspan class="cls-32" x="115.62" y="0">r</tspan><tspan x="122.42" y="0">tu</tspan><tspan class="cls-33" x="139.53" y="0">p</tspan><tspan x="149.95" y="0">.</tspan><tspan class="cls-34" x="0" y="18.3">T</tspan><tspan class="cls-35" x="9.24" y="18.3">r</tspan><tspan x="15.71" y="18.3">ansmi</tspan><tspan class="cls-36" x="64.34" y="18.3">t</tspan><tspan x="70.72" y="18.3">e el objeti</tspan><tspan class="cls-37" x="149.23" y="18.3">v</tspan><tspan class="cls-33" x="158.12" y="18.3">o</tspan><tspan x="168" y="18.3">.</tspan></text><path class="cls-30" d="M1088.17,671.52c3.9.77,9.66,1.24,14.8-1.65,9.92-5.57,6.88-17.63,16.45-24.67,8.78-6.45,14.93,1,26.32-4.94,11.76-6.18,8.43-15.88,21.38-24.67,9.73-6.59,14.83-3.32,24.68-9.87,9.16-6.1,13.91-15,16.45-21.38"/><polygon class="cls-18" points="0 526.83 316.98 750.97 581.13 564.19 264.15 340.06 0 526.83"/><polygon class="cls-18" points="0 520.61 0 526.83 581.13 564.19 581.13 557.97 0 520.61"/><polygon class="cls-1" points="0 520.61 316.98 744.75 581.13 557.97 264.15 333.83 0 520.61"/><path class="cls-38" d="M352.05,442.29,325.8,403.58s-68.59,15.2-107.32,39.21c0,0,5.41,11.24-19.79,29.3s-41,14.16-41,14.16C124.15,514,102.9,563,102.9,563L157,581.78l20.23-28.5c16.61,9.54,156.89,115.3,156.89,115.3l69.54-49.74.17-.12L473.4,569S325.54,468.64,312.2,456.76Z"/><path class="cls-38" d="M352.05,442.29,325.8,403.58s-68.59,15.2-107.32,39.21c0,0,12.21,16.1-13,34.16s-47.77,9.3-47.77,9.3C124.15,514,102.9,563,102.9,563L157,581.78l20.23-28.5c16.61,9.54,156.89,115.3,156.89,115.3l69.54-49.74.17-.12L473.4,569S325.54,468.64,312.2,456.76Z"/><path class="cls-39" d="M329.33,450.54l-17.13,6.22-3.44-2.46S313.67,455.34,329.33,450.54Z"/><path class="cls-39" d="M168.56,565.78l8.7-12.25-3.45-2.47S175.28,554.57,168.56,565.78Z"/><path class="cls-40" d="M473.4,569S340.61,488.52,312.2,456.76c0,0,17.72,13.29,42.78,30.84C390.84,512.72,441.38,547.16,473.4,569Z"/><path class="cls-41" d="M277.69,626.23s70.94,26.08,130.82-10.84l-74.36,53.19Z"/><g id="Capa_2-5" data-name="Capa 2"><g id="Presentacion-Logo-4" data-name="Presentacion-Logo"><polygon class="cls-4" points="250.28 495.97 257.98 495.02 254.59 492.59 246.88 493.54 250.28 495.97"/><polygon class="cls-20" points="259.31 489.52 257.98 495.02 254.59 492.59 255.93 487.09 259.31 489.52"/><polygon class="cls-21" points="246.28 493.26 255.51 486.66 256.56 487.41 255.2 493.03 247.33 494.01 246.28 493.26"/><polygon class="cls-4" points="250.9 489.96 255.2 493.03 256.56 487.41 255.51 486.66 250.9 489.96"/><polygon class="cls-3" points="247.65 487.63 246.28 493.26 254.15 492.28 255.51 486.66 247.65 487.63"/><path class="cls-19" d="M264.23,483.5l1.38-1,2.29,1.63a3.07,3.07,0,0,1-.57,1.16,4.56,4.56,0,0,1-1.05,1,5.16,5.16,0,0,1-1.93.86,5.54,5.54,0,0,1-2.11,0,4.6,4.6,0,0,1-1.88-.78,2.86,2.86,0,0,1-1.09-1.35,2,2,0,0,1,.09-1.51,3.51,3.51,0,0,1,1.22-1.4,5.39,5.39,0,0,1,1.65-.8,5,5,0,0,1,1.78-.2l-.1,1.35a3.1,3.1,0,0,0-2,.52,1.23,1.23,0,0,0-.2,2.12l.2.14a2.51,2.51,0,0,0,1,.44,2.77,2.77,0,0,0,1.11,0,2.57,2.57,0,0,0,1-.44,2,2,0,0,0,.66-.73Z"/><path class="cls-19" d="M269.73,483.38a3.82,3.82,0,0,1-3.11-.54,1.73,1.73,0,0,1-.75-2.21,3.72,3.72,0,0,1,2.48-1.78,3.94,3.94,0,0,1,1.64-.05,3.37,3.37,0,0,1,1.45.59,2.14,2.14,0,0,1,.84,1,1.56,1.56,0,0,1-.07,1.18A3.68,3.68,0,0,1,269.73,483.38Zm.7-2.19a1,1,0,0,0-.49-.72,1.72,1.72,0,0,0-1-.35c-.71,0-1.29.41-1.29.92h0a1,1,0,0,0,.49.71,1.76,1.76,0,0,0,1,.36c.71,0,1.29-.4,1.3-.91v0Z"/><path class="cls-19" d="M276.5,472.72l2.76,4.15-1.45,1-3.14-1.09,1.5,2.26-1.46,1-5.8-2,1.42-1,3.47,1.23-1.68-2.5,1.28-.92,3.5,1.24-1.71-2.52Z"/><path class="cls-19" d="M281.41,473.18v.64l1.05.75L281,475.64l-5.86-4.19,1.5-1.07,3.08,2.2,0-2.16,1.77-1.27.06,2.58,4.36.37-1.81,1.29Z"/><path class="cls-19" d="M281.26,468.31a1.24,1.24,0,0,1-.82-.22.66.66,0,0,1-.32-.59.92.92,0,0,1,.44-.64,1.67,1.67,0,0,1,.88-.32,1.23,1.23,0,0,1,.81.22.67.67,0,0,1,.33.6,1.35,1.35,0,0,1-1.32.95Zm.61.57,1.5-1.07,4.28,3.06-1.5,1.07Z"/><path class="cls-19" d="M291.13,468.13a1.35,1.35,0,0,1-.28.45,3,3,0,0,1-.52.47,3.14,3.14,0,0,1-1.7.62,2.65,2.65,0,0,1-1.67-.55l-1.43-1-.62.45-1.13-.8.63-.45-1.11-.79,1.5-1.08,1.11.8,1-.7,1.12.8-1,.7,1.42,1a.81.81,0,0,0,.48.16.62.62,0,0,0,.45-.14.78.78,0,0,0,.33-.42Z"/></g></g><path class="cls-42" d="M352.05,440.29,325.8,401.58s-68.59,15.2-107.32,39.21c0,0,5.41,11.24-19.79,29.3s-41,14.16-41,14.16C124.15,512,102.9,561,102.9,561L157,579.78l20.23-28.5c16.61,9.54,156.89,115.3,156.89,115.3l69.54-49.74.17-.12L473.4,567S325.54,466.64,312.2,454.76Z"/><path class="cls-43" d="M352.05,440.29,325.8,401.58s-68.59,15.2-107.32,39.21c0,0,12.21,16.1-13,34.16s-47.77,9.3-47.77,9.3C124.15,512,102.9,561,102.9,561L157,579.78l20.23-28.5c16.61,9.54,156.89,115.3,156.89,115.3l69.54-49.74.17-.12L473.4,567S325.54,466.64,312.2,454.76Z"/><path class="cls-44" d="M329.33,448.54l-17.13,6.22-3.44-2.46S313.67,453.34,329.33,448.54Z"/><path class="cls-44" d="M168.56,563.78l8.7-12.25-3.45-2.47S175.28,552.57,168.56,563.78Z"/><path class="cls-2" d="M473.4,567S340.61,486.52,312.2,454.76c0,0,17.72,13.29,42.78,30.84C390.84,510.72,441.38,545.16,473.4,567Z"/><path class="cls-45" d="M277.69,624.23s70.94,26.08,130.82-10.84l-74.36,53.19Z"/><polygon class="cls-4" points="259.93 490.47 266.3 489.7 263.5 487.75 257.1 488.51 259.93 490.47"/><polygon class="cls-20" points="267.4 485.28 266.3 489.7 263.5 487.75 264.6 483.33 267.4 485.28"/><polygon class="cls-21" points="256.61 488.29 264.26 482.98 265.13 483.58 264 488.1 257.48 488.89 256.61 488.29"/><polygon class="cls-4" points="260.44 485.63 264 488.1 265.13 483.58 264.26 482.98 260.44 485.63"/><polygon class="cls-3" points="257.74 483.77 256.61 488.29 263.13 487.5 264.26 482.98 257.74 483.77"/><path class="cls-19" d="M271.48,480.44l1.15-.79,1.89,1.31a2.41,2.41,0,0,1-.47.93,3.77,3.77,0,0,1-.87.81,4.21,4.21,0,0,1-1.6.68,4.48,4.48,0,0,1-1.75,0,3.77,3.77,0,0,1-1.55-.62,2.3,2.3,0,0,1-.9-1.08,1.53,1.53,0,0,1,.07-1.22,2.89,2.89,0,0,1,1-1.12,4.5,4.5,0,0,1,2.84-.81l-.08,1.09a2.62,2.62,0,0,0-1.62.42,1,1,0,0,0-.16,1.7.91.91,0,0,0,.16.11,2.21,2.21,0,0,0,.84.36,2.37,2.37,0,0,0,.92,0,2,2,0,0,0,.83-.35,1.59,1.59,0,0,0,.55-.58Z"/><path class="cls-19" d="M276,480.35a3.32,3.32,0,0,1-2.57-.43,1.37,1.37,0,0,1-.62-1.78,3.06,3.06,0,0,1,2.05-1.43,3.46,3.46,0,0,1,1.36,0,2.8,2.8,0,0,1,1.2.47,1.74,1.74,0,0,1,.7.84,1.19,1.19,0,0,1-.06.94A3,3,0,0,1,276,480.35Zm.59-1.76a.8.8,0,0,0-.41-.58,1.39,1.39,0,0,0-.82-.28c-.6,0-1.08.33-1.08.74h0a.79.79,0,0,0,.41.57,1.48,1.48,0,0,0,.83.29c.59,0,1.07-.32,1.07-.73Z"/><path class="cls-19" d="M281.65,471.79l2.28,3.33-1.2.83-2.6-.87,1.24,1.82-1.2.83-4.81-1.58,1.18-.82,2.87,1-1.39-2,1.05-.74,2.9,1-1.41-2Z"/><path class="cls-19" d="M285.72,472.16v.51l.87.6-1.23.86-4.86-3.36,1.24-.87,2.56,1.77,0-1.73,1.47-1,0,2.07,3.62.3-1.5,1Z"/><path class="cls-19" d="M285.59,468.25a1.11,1.11,0,0,1-.68-.19.51.51,0,0,1-.26-.47.72.72,0,0,1,.36-.51,1.52,1.52,0,0,1,.73-.26,1.07,1.07,0,0,1,.67.18.54.54,0,0,1,.28.48,1.12,1.12,0,0,1-1.1.76Zm.51.45,1.24-.86,3.55,2.45-1.25.87Z"/><path class="cls-19" d="M293.77,468.1a1,1,0,0,1-.24.36,2.14,2.14,0,0,1-.42.37,2.7,2.7,0,0,1-1.41.51,2.32,2.32,0,0,1-1.39-.45l-1.18-.82-.52.36-.93-.65.52-.36-.92-.63,1.24-.87.92.64.81-.56.93.65-.81.56,1.18.81a.71.71,0,0,0,.39.14.6.6,0,0,0,.38-.12.63.63,0,0,0,.27-.34Z"/></g></g></svg>